# AST/ASF file generated using VICON BodyLanguage
# -----------------------------------------------
:version 1.10
:name VICON
:units
  mass 1.0
  length 0.45
  angle deg
:documentation
   .ast/.asf automatically generated from VICON data using
   VICON BodyBuilder and BodyLanguage model FoxedUp or BRILLIANT.MOD
:root
   order TX TY TZ RX RY RZ
   axis XYZ
   position 0 0 0  
   orientation 0 -0 0 
:bonedata
  begin
     id 1 
     name lhipjoint
     direction 0.432694 -0.693742 0.575759 
     length 2.19277 
     axis 0 -0 0  XYZ
  end
  begin
     id 2 
     name lfemur
     direction 0.34202 -0.939693 0  
     length 6.69022  
     axis 0 -0 20  XYZ
    dof rx ry rz
    limits (-160.0 20.0)
           (-70.0 70.0)
           (-60.0 70.0)
  end
  begin
     id 3 
     name ltibia
     direction 0.34202 -0.939693 0   
     length 6.50337   
     axis 0 -0 20   XYZ
    dof rx
    limits (-10.0 170.0)
  end
  begin
     id 4 
     name lfoot
     direction 0.158999 -0.435969 0.885805   
     length 2.70564   
     axis -90 -1.13533e-015 20   XYZ
    dof rx rz
    limits (-45.0 90.0)
           (-70.0 20.0)
  end
  begin
     id 5 
     name ltoes
     direction -0.00592919 0.00964381 0.999936   
     length 1.29929   
     axis -90 -1.13533e-015 20   XYZ
    dof rx
    limits (-90.0 20.0)
  end
  begin
     id 6 
     name rhipjoint
     direction -0.414359 -0.700339 0.581234   
     length 2.17212  
     axis 0 -0 0  XYZ 
  end
  begin
     id 7 
     name rfemur
     direction -0.34202 -0.939693 0   
     length 7.17659   
     axis 0 -0 -20   XYZ
    dof rx ry rz
    limits (-160.0 20.0)
           (-70.0 70.0)
           (-70.0 60.0)
  end
  begin
     id 8 
     name rtibia
     direction -0.34202 -0.939693 0   
     length 6.36669   
     axis 0 -0 -20   XYZ
    dof rx
    limits (-10.0 170.0)
 end
 begin
     id 9 
     name rfoot
     direction -0.137064 -0.37658 0.916188   
     length 2.22351  
     axis -90 1.13533e-015 -20   XYZ
    dof rx rz
    limits (-45.0 90.0)
           (-20.0 70.0)
  end
  begin
     id 10 
     name rtoes
     direction -0.000784077 -0.00289101 0.999996   
     length 1.09522   
     axis -90 1.13533e-015 -20   XYZ
    dof rx
    limits (-90.0 20.0)
  end
  begin
     id 11 
     name lowerback
     direction -0.0176242 0.984912 -0.172157   
     length 1.65301   
     axis 0 -0 0   XYZ
    dof rx ry rz
    limits (-20.0 45.0)
           (-30.0 30.0)
           (-30.0 30.0)
  end
  begin
     id 12 
     name upperback
     direction -0.00218128 0.998776 -0.0494072   
     length 1.67776   
     axis 0 -0 0   XYZ
    dof rx ry rz
    limits (-20.0 45.0)
           (-30.0 30.0)
           (-30.0 30.0)
  end
  begin
     id 13 
     name thorax
     direction 0.00544186 0.999658 0.0255711   
     length 1.72293   
     axis 0 -0 0   XYZ
    dof rx ry rz
    limits (-20.0 45.0)
           (-30.0 30.0)
           (-30.0 30.0)
  end
  begin
     id 14 
     name lowerneck
     direction -0.105325 0.983841 0.144785   
     length 2.14226   
     axis 0 -0 0   XYZ
    dof rx ry rz
    limits (-20.0 45.0)
           (-30.0 30.0)
           (-30.0 30.0)
  end
  begin
     id 15 
     name upperneck
     direction 0.0547957 0.988053 -0.144041   
     length 2.17508   
     axis 0 -0 0   XYZ
    dof rx ry rz
    limits (-20.0 45.0)
           (-30.0 30.0)
           (-30.0 30.0)
  end
  begin
     id 16
     name head
     direction 0.0247488 0.997534 -0.0656813  
     length 2.20048  
     axis 0 -0 0   XYZ
    dof rx ry rz
    limits (-20.0 45.0)
           (-30.0 30.0)
           (-30.0 30.0)
  end
  begin
     id 17 
     name lclavicle
     direction 0.820559 0.567247 -0.0701026  
     length 4.09615  
     axis 0 -0 0   XYZ
    dof ry rz
    limits (-20.0 10.0)
           (0.0 20.0)
  end
  begin
     id 18 
     name lhumerus
     direction 0.999977 -0.0067566 -9.96392e-005   
     length 4.59333   
     axis -180 -30 -90   XYZ
    dof rx ry rz
    limits (-60.0 90.0)
           (-90.0 90.0)
           (-90.0 90.0)
  end
  begin
     id 19
     name lradius
     direction 1 -4.48982e-011 -2.53425e-027   
     length 2.81151   
     axis -180 -30 -90   XYZ
    dof rx
    limits (-10.0 170.0)
  end
  begin
     id 20
     name lwrist
     direction 1 -4.48939e-011 -7.39254e-028   
     length 1.40576   
     axis 2.56395e-016 90 90   XYZ
    dof ry
    limits (-180.0 0.0)
 end
  begin
     id 21 
     name lhand
     direction 1 -4.48939e-011 -1.47851e-027   
     length 0.895651   
     axis 9.43423e-016 90 90   XYZ
    dof rx rz
    limits (-90.0 90.0)
           (-45.0 45.0)
  end
  begin
     id 22 
     name lfingers
     direction 1 -4.48978e-011 -2.95702e-027   
     length 0.722097   
     axis 1.88685e-015 90 90   XYZ
    dof rx
    limits (0.0 90.0)
  end
  begin
     id 23
     name lthumb
     direction 0.707107 -6.34931e-011 0.707107   
     length 1.03679   
     axis -90 45 -9.86935e-015   XYZ
    dof rx rz
    limits (-45.0 45.0)
           (-45.0 45.0)
  end
  begin
     id 24 
     name rclavicle
     direction -0.831414 0.553102 -0.0531864   
     length 4.24872  
     axis 0 -0 0   XYZ 
    dof ry rz
    limits (-10.0 20.0)
           (-20.0 0.0)
  end
  begin
     id 25 
     name rhumerus
     direction -0.999916 -0.000939607 0.0129331  
     length 4.74834   
     axis -180 30 90   XYZ
    dof rx ry rz
    limits (-90.0 60.0)
           (-90.0 90.0)
           (-90.0 90.0)
  end
  begin
     id 26 
     name rradius
     direction -1 -4.48956e-011 -1.31752e-027   
     length 2.79907   
     axis -180 30 90   XYZ
    dof rx
    limits (-10.0 170.0)
  end
  begin
     id 27 
     name rwrist
     direction -1 -4.4897e-011 -7.39254e-028   
     length 1.39954   
     axis 2.56395e-016 -90 -90   XYZ
    dof ry
    limits (-180.0 0.0)
  end
  begin
     id 28
     name rhand
     direction -0.999997 -0.00250697 0.000800838   
     length 0.953304   
     axis 9.43423e-016 -90 -90   XYZ
    dof rx rz
    limits (-90.0 90.0)
           (-45.0 45.0)
  end
  begin
     id 29
     name rfingers
     direction -1 -4.48954e-011 -2.95702e-027   
     length 0.763342   
     axis 1.88685e-015 -90 -90   XYZ
    dof rx
    limits (0.0 90.0)
  end
  begin
     id 30
     name rthumb
     direction -0.709701 -0.00217037 0.7045   
     length 1.10115   
     axis -90 -45 9.86935e-015   XYZ
    dof rx rz
    limits (-45.0 45.0)
           (-45.0 45.0)
  end
:hierarchy
  begin
    root lhipjoint rhipjoint lowerback
    lhipjoint lfemur
    lfemur ltibia
    ltibia lfoot
    lfoot ltoes
    rhipjoint rfemur
    rfemur rtibia
    rtibia rfoot
    rfoot rtoes
    lowerback upperback
    upperback thorax
    thorax lowerneck lclavicle rclavicle
    lowerneck upperneck
    upperneck head
    lclavicle lhumerus
    lhumerus lradius
    lradius lwrist
    lwrist lhand lthumb
    lhand lfingers
    rclavicle rhumerus
    rhumerus rradius
    rradius rwrist
    rwrist rhand rthumb
    rhand rfingers
  end

#!OML:ASF G:\ViconDB\ViconDB\414\test\team2\shane.ASF
:FULLY-SPECIFIED
:DEGREES
97
root 1.3551 16.9441 -15.8845 -6.09092 -2.68511 -2.34626
lowerback 10.0789 0.686799 -0.571852
upperback 3.74684 0.876302 0.922897
thorax -1.77953 0.427765 1.17592
lowerneck -15.1366 -2.70428 -6.7311
upperneck 15.8435 -3.9637 9.61602
head 7.70492 -1.39966 3.86059
rclavicle 3.44146e-015 -1.36167e-014
rhumerus -29.6556 5.28616 -92.8612
rradius 29.4117
rwrist 35.8331
rhand -30.2545 -14.2274
rfingers 7.12502
rthumb -3.56321 -44.1774
lclavicle 3.44146e-015 -1.36167e-014
lhumerus -32.5255 -5.02009 88.7315
lradius 12.9988
lwrist -30.1076
lhand -36.9083 7.91877
lfingers 7.12502
lthumb -9.98614 37.6619
rfemur -2.47932 -12.6198 10.8881
rtibia 63.7684
rfoot -11.5908 8.67185
rtoes -18.1495
lfemur 2.5813 12.3875 -15.589
ltibia 22.0777
lfoot -23.5285 -19.8982
ltoes -4.60607
98
root 1.35297 16.9367 -15.7405 -6.30101 -2.14013 -2.59107
lowerback 10.3539 0.436192 -0.496114
upperback 3.80172 0.554034 1.03893
thorax -1.86552 0.267107 1.28904
lowerneck -15.2387 -2.72964 -7.11773
upperneck 16.0277 -4.00756 10.0852
head 7.80541 -1.39595 4.08321
rclavicle 1.4971e-014 -4.96962e-015
rhumerus -30.31 3.45958 -91.8106
rradius 28.385
rwrist 37.7154
rhand -30.2585 -14.0687
rfingers 7.12502
rthumb -3.56714 -44.0186
lclavicle 1.4971e-014 -4.96962e-015
lhumerus -31.1395 -5.56885 89.2887
lradius 13.1679
lwrist -29.9493
lhand -37.101 8.33316
lfingers 7.12502
lthumb -10.1721 38.0673
rfemur -3.80226 -13.2523 11.3994
rtibia 63.7172
rfoot -12.7626 8.33857
rtoes -18.1874
lfemur 3.57213 12.5364 -15.0718
ltibia 21.56
lfoot -23.8027 -20.7395
ltoes -5.17068
99
root 1.35139 16.9293 -15.5937 -6.40214 -1.79001 -2.61601
lowerback 10.3913 0.273688 -0.716991
upperback 3.8524 0.320132 1.16852
thorax -1.82883 0.148311 1.5753
lowerneck -15.1558 -2.69158 -7.19995
upperneck 15.9883 -3.93622 10.0798
head 7.77218 -1.37036 4.10286
rclavicle -2.00027e-015 1.88845e-015
rhumerus -30.9749 1.7864 -90.6238
rradius 27.4706
rwrist 39.0827
rhand -30.109 -13.9683
rfingers 7.12502
rthumb -3.42271 -43.9205
lclavicle -2.00027e-015 1.88845e-015
lhumerus -29.938 -6.14951 89.8939
lradius 13.6615
lwrist -29.6085
lhand -37.1124 8.41152
lfingers 7.12502
lthumb -10.1831 38.1451
rfemur -5.27173 -13.6722 11.7074
rtibia 63.4123
rfoot -13.6572 8.10726
rtoes -18.1055
lfemur 4.44877 12.2031 -14.9842
ltibia 21.0897
lfoot -23.9696 -20.8398
ltoes -4.70862
100
root 1.34441 16.9183 -15.4421 -6.49534 -1.35159 -2.57056
lowerback 10.3123 0.134968 -1.11586
upperback 3.99133 0.101284 1.33441
thorax -1.63438 0.0335502 1.99764
lowerneck -15.2906 -2.75392 -7.38566
upperneck 15.9912 -3.97259 10.088
head 7.80434 -1.39478 4.13283
rclavicle -4.36084e-015 3.52843e-015
rhumerus -31.5877 0.538022 -89.4356
rradius 26.7326
rwrist 39.9709
rhand -30.0097 -14.0843
rfingers 7.12502
rthumb -3.32678 -44.0381
lclavicle -4.36084e-015 3.52843e-015
lhumerus -28.5774 -7.468 90.9
lradius 14.2072
lwrist -27.8914
lhand -37.4051 8.19711
lfingers 7.12502
lthumb -10.4655 37.9166
rfemur -6.66803 -14.0743 12.029
rtibia 62.84
rfoot -14.5198 7.72282
rtoes -17.8127
lfemur 5.30874 12.0925 -14.8867
ltibia 20.6451
lfoot -24.2338 -21.2327
ltoes -4.66033
101
root 1.34013 16.9083 -15.2942 -6.65492 -0.867916 -2.90212
lowerback 10.4333 -0.129347 -0.945769
upperback 4.09976 -0.229996 1.48072
thorax -1.5738 -0.132711 2.09197
lowerneck -15.5105 -2.73016 -7.52443
upperneck 16.1252 -3.93393 10.2409
head 7.88986 -1.36352 4.21555
rclavicle 8.92046e-015 -6.75868e-015
rhumerus -32.1984 -1.00584 -88.2496
rradius 25.8822
rwrist 41.4776
rhand -29.9707 -13.995
rfingers 7.12502
rthumb -3.28915 -43.9494
lclavicle 8.92046e-015 -6.75868e-015
lhumerus -27.1474 -7.37496 91.1624
lradius 14.4701
lwrist -28.3024
lhand -37.737 8.20304
lfingers 7.12502
lthumb -10.7856 37.9061
rfemur -7.88139 -14.619 12.7265
rtibia 61.9895
rfoot -15.3965 7.25642
rtoes -18.1147
lfemur 6.26271 11.9887 -14.3227
ltibia 20.1514
lfoot -24.4775 -21.7478
ltoes -4.71755
102
root 1.33892 16.8973 -15.1383 -6.70618 -0.466807 -2.97087
lowerback 10.331 -0.337564 -1.06232
upperback 4.17535 -0.513914 1.63268
thorax -1.42412 -0.278327 2.34645
lowerneck -15.4704 -2.7327 -7.84335
upperneck 16.0276 -3.88395 10.3832
head 7.85453 -1.34841 4.32216
rclavicle 2.00369e-014 -5.92627e-015
rhumerus -32.9705 -1.90496 -87.1025
rradius 25.273
rwrist 42.2962
rhand -29.6972 -14.1267
rfingers 7.12502
rthumb -3.02502 -44.085
lclavicle 2.00369e-014 -5.92627e-015
lhumerus -26.0699 -8.76822 91.952
lradius 15.2464
lwrist -27.0757
lhand -37.9079 8.21552
lfingers 7.12502
lthumb -10.9505 37.9099
rfemur -9.12674 -14.9201 13.1861
rtibia 60.8674
rfoot -16.1036 6.66418
rtoes -17.945
lfemur 7.17825 11.7635 -14.1539
ltibia 19.5811
lfoot -24.7247 -21.8941
ltoes -5.00776
103
root 1.33086 16.8896 -14.9838 -6.7165 0.00868323 -3.18509
lowerback 10.3446 -0.538166 -1.1097
upperback 4.18238 -0.780351 1.80376
thorax -1.40772 -0.413171 2.58102
lowerneck -15.4456 -2.71313 -7.82858
upperneck 15.9927 -3.84118 10.2902
head 7.83201 -1.33691 4.29214
rclavicle 5.30041e-015 -4.52235e-015
rhumerus -33.7219 -3.12175 -85.9373
rradius 24.7131
rwrist 42.5787
rhand -29.5206 -14.2137
rfingers 7.12502
rthumb -2.85453 -44.1743
lclavicle 5.30041e-015 -4.52235e-015
lhumerus -25.0891 -10.2643 92.6623
lradius 16.1006
lwrist -25.7523
lhand -38.0076 7.86173
lfingers 7.12502
lthumb -11.0466 37.551
rfemur -10.3287 -15.3788 13.836
rtibia 59.4711
rfoot -16.9386 6.2288
rtoes -18.355
lfemur 8.05767 11.5899 -13.7527
ltibia 18.8948
lfoot -24.8095 -22.3551
ltoes -4.71272
104
root 1.32608 16.883 -14.8275 -6.76918 0.423402 -3.39231
lowerback 10.437 -0.722393 -1.05957
upperback 4.15326 -1.01708 1.9015
thorax -1.47482 -0.530601 2.683
lowerneck -15.4052 -2.71993 -8.04958
upperneck 16.0102 -3.85185 10.5453
head 7.84112 -1.33285 4.416
rclavicle 1.46775e-014 -2.00897e-014
rhumerus -34.6282 -4.61361 -84.5663
rradius 23.9585
rwrist 44.5997
rhand -29.4381 -14.106
rfingers 7.12502
rthumb -2.77477 -44.0677
lclavicle 1.46775e-014 -2.00897e-014
lhumerus -23.9782 -10.518 92.8391
lradius 16.63
lwrist -25.9763
lhand -38.1376 7.36701
lfingers 7.12502
lthumb -11.172 37.0496
rfemur -11.4045 -15.6449 14.477
rtibia 57.8169
rfoot -17.635 5.56775
rtoes -17.9112
lfemur 9.05269 11.4059 -13.3785
ltibia 18.0833
lfoot -24.8969 -22.7358
ltoes -4.55865
105
root 1.32278 16.8779 -14.6649 -6.80304 0.733158 -3.4878
lowerback 10.4019 -0.856066 -1.20118
upperback 4.14526 -1.20411 2.06524
thorax -1.44659 -0.626662 2.95381
lowerneck -15.2176 -2.71882 -7.97419
upperneck 15.8816 -3.82148 10.2924
head 7.75549 -1.34355 4.31753
rclavicle 9.73734e-015 1.54058e-015
rhumerus -35.5393 -5.70091 -83.2746
rradius 23.4718
rwrist 45.02
rhand -29.1928 -13.9223
rfingers 7.12502
rthumb -2.53792 -43.8869
lclavicle 9.73734e-015 1.54058e-015
lhumerus -23.2886 -12.8638 93.7683
lradius 17.8359
lwrist -23.6182
lhand -38.4533 8.12259
lfingers 7.12502
lthumb -11.4765 37.7884
rfemur -12.4074 -15.9062 14.9643
rtibia 55.9226
rfoot -18.2557 5.26023
rtoes -18.0532
lfemur 10.0952 11.2731 -13.1237
ltibia 17.1817
lfoot -24.8977 -23.0338
ltoes -4.54084
106
root 1.31656 16.8734 -14.5082 -6.78422 1.22974 -3.53358
lowerback 10.451 -1.09695 -1.43078
upperback 4.10373 -1.54166 2.22842
thorax -1.48458 -0.797476 3.29343
lowerneck -15.2999 -2.61599 -8.19939
upperneck 16.0109 -3.63385 10.3113
head 7.79767 -1.26327 4.38662
rclavicle 8.44835e-016 3.47873e-015
rhumerus -36.4136 -6.15666 -82.141
rradius 23.1007
rwrist 45.2567
rhand -28.8247 -13.7105
rfingers 7.12502
rthumb -2.18244 -43.679
lclavicle 8.44835e-016 3.47873e-015
lhumerus -22.408 -13.7445 94.1945
lradius 18.7552
lwrist -23.0045
lhand -38.5813 7.49702
lfingers 7.12502
lthumb -11.5999 37.156
rfemur -13.3608 -16.1845 15.4318
rtibia 53.7971
rfoot -18.8003 4.85938
rtoes -17.121
lfemur 11.0947 10.9977 -12.9509
ltibia 16.0961
lfoot -24.6902 -23.4133
ltoes -4.13661
107
root 1.30205 16.8729 -14.3512 -6.66666 1.72754 -3.77194
lowerback 10.5498 -1.28817 -1.57182
upperback 3.94826 -1.80161 2.47495
thorax -1.66913 -0.925535 3.66591
lowerneck -15.0725 -2.62585 -8.39178
upperneck 15.8834 -3.61796 10.3598
head 7.7179 -1.27012 4.43474
rclavicle -2.9445e-014 -4.47266e-015
rhumerus -37.4388 -6.88718 -80.7625
rradius 22.5834
rwrist 46.7548
rhand -29.0242 -14.2482
rfingers 7.12502
rthumb -2.37511 -44.2147
lclavicle -2.9445e-014 -4.47266e-015
lhumerus -21.6243 -14.4302 94.516
lradius 19.6208
lwrist -22.6545
lhand -38.6461 7.82982
lfingers 7.12502
lthumb -11.6624 37.4852
rfemur -14.3675 -16.5372 16.1726
rtibia 51.4756
rfoot -19.2101 4.49088
rtoes -17.2431
lfemur 12.0439 10.5714 -12.6102
ltibia 14.8294
lfoot -24.4065 -23.593
ltoes -4.43352
108
root 1.29047 16.8686 -14.1845 -6.62122 1.98448 -3.8094
lowerback 10.584 -1.44991 -1.83504
upperback 3.86486 -2.03789 2.6363
thorax -1.74041 -1.04423 4.01372
lowerneck -15.0746 -2.56963 -8.67352
upperneck 15.9621 -3.50495 10.4889
head 7.73932 -1.22131 4.54136
rclavicle -3.52843e-015 1.43125e-014
rhumerus -38.3228 -7.39166 -79.5647
rradius 22.163
rwrist 47.2458
rhand -28.8224 -14.0993
rfingers 7.12502
rthumb -2.18015 -44.0679
lclavicle -3.52843e-015 1.43125e-014
lhumerus -20.8 -14.9542 94.8208
lradius 20.4217
lwrist -22.4483
lhand -39.2301 7.42921
lfingers 7.12502
lthumb -12.2255 37.0519
rfemur -15.1855 -16.4918 16.6778
rtibia 48.9891
rfoot -19.6278 4.19269
rtoes -17.7714
lfemur 13.2333 10.4172 -12.4138
ltibia 13.4406
lfoot -24.0958 -23.7912
ltoes -4.66849
